Coordinates
version=1
nRows=54
nColumns=12
inDegrees=yes

Units are S.I. units (second, meters, Newtons, ...)
Angles are in degrees

endheader
time	SC_y	SC_z	SC_x	AC_y	AC_z	AC_x	GH_y	GH_z	GH_yy	EL_x	PS_y
       0.0              -12.96          10.29          40.67          64.52          1.141         -17.93          168.9          47.78         -44.76          126.8          26.92
   0.01917              -12.97          10.29          40.67          64.52           1.14         -17.93          168.8          47.79         -44.74          126.8          26.93
   0.03835              -12.97          10.29          40.68          64.52          1.138         -17.93          168.8           47.8         -44.71          126.8          26.95
   0.05752              -12.98          10.29          40.68          64.52          1.136         -17.92          168.7           47.8         -44.68          126.8          26.97
   0.07669              -12.98          10.29          40.69          64.52          1.135         -17.92          168.7          47.81         -44.65          126.8          26.98
   0.09587              -12.98          10.29           40.7          64.52          1.133         -17.92          168.6          47.82         -44.62          126.8          27.01
     0.115              -12.99          10.29          40.71          64.52          1.131         -17.92          168.5          47.83         -44.58          126.8          27.03
    0.1342               -13.0          10.29          40.71          64.52          1.129         -17.92          168.5          47.83         -44.54          126.8          27.05
    0.1534               -13.0          10.29          40.72          64.52          1.126         -17.91          168.4          47.84          -44.5          126.8          27.07
    0.1726              -13.01          10.29          40.73          64.53          1.124         -17.91          168.3          47.85         -44.46          126.8           27.1
    0.1917              -13.01          10.29          40.74          64.53          1.121         -17.91          168.2          47.86         -44.41          126.8          27.13
    0.2109              -13.02          10.29          40.75          64.53          1.118         -17.91          168.1          47.88         -44.36          126.8          27.16
    0.2301              -13.03          10.29          40.77          64.53          1.115          -17.9          168.0          47.89         -44.31          126.8          27.19
    0.2493              -13.04          10.29          40.78          64.53          1.112          -17.9          167.9           47.9         -44.25          126.8          27.23
    0.2684              -13.05          10.29          40.79          64.53          1.108          -17.9          167.8          47.92         -44.18          126.8          27.27
    0.2876              -13.06          10.29          40.81          64.53          1.104         -17.89          167.6          47.93         -44.12          126.8          27.31
    0.3068              -13.07          10.29          40.83          64.53            1.1         -17.89          167.5          47.95         -44.04          126.8          27.36
     0.326              -13.08          10.29          40.84          64.54          1.095         -17.88          167.4          47.97         -43.96          126.8           27.4
    0.3451              -13.09          10.29          40.86          64.54           1.09         -17.88          167.2          47.99         -43.87          126.8          27.46
    0.3643              -13.11          10.29          40.88          64.54          1.085         -17.87          167.0          48.01         -43.77          126.8          27.52
    0.3835              -13.12          10.29          40.91          64.54          1.079         -17.86          166.8          48.04         -43.67          126.8          27.58
    0.4026              -13.14          10.29          40.93          64.54          1.072         -17.86          166.6          48.07         -43.55          126.8          27.66
    0.4218              -13.16          10.29          40.96          64.55          1.065         -17.85          166.3           48.1         -43.42          126.9          27.73
     0.441              -13.18          10.29           41.0          64.55          1.057         -17.84          166.1          48.13         -43.27          126.9          27.82
    0.4602               -13.2          10.29          41.03          64.55          1.048         -17.83          165.8          48.17         -43.11          126.9          27.92
    0.4793              -13.23          10.29          41.07          64.56          1.037         -17.82          165.4          48.21         -42.93          126.9          28.03
    0.4985              -13.25          10.29          41.11          64.56          1.026         -17.81          165.0          48.26         -42.73          126.9          28.15
    0.5177              -13.29          10.29          41.16          64.56          1.013          -17.8          164.6          48.31         -42.51          126.9          28.29
    0.5369              -13.32          10.29          41.22          64.57         0.9989         -17.78          164.1          48.37         -42.25          126.9          28.44
     0.556              -13.36          10.29          41.28          64.58         0.9825         -17.77          163.6          48.44         -41.96          127.0          28.62
    0.5752              -13.41          10.29          41.36          64.58         0.9638         -17.75          163.0          48.51         -41.63          127.0          28.82
    0.5944              -13.47          10.29          41.44          64.59         0.9423         -17.72          162.2           48.6         -41.25          127.0          29.05
    0.6136              -13.53          10.29          41.54           64.6         0.9176          -17.7          161.4           48.7         -40.82          127.0          29.32
    0.6327               -13.6          10.29          41.65          64.61         0.8888         -17.67          160.4          48.82         -40.31          127.1          29.63
    0.6519              -13.69          10.29          41.78          64.62         0.8551         -17.64          159.3          48.96         -39.71          127.1          29.99
    0.6711              -13.79          10.28          41.94          64.63         0.8154         -17.59          158.0          49.12         -39.01          127.2          30.41
    0.6903              -13.91          10.28          42.12          64.65         0.7682         -17.55          156.4          49.32         -38.18          127.2          30.92
    0.7094              -14.05          10.28          42.34          64.67         0.7116         -17.49          154.5          49.55         -37.18          127.3          31.53
    0.7286              -14.22          10.28          42.61          64.69         0.6432         -17.42          152.2          49.83         -35.97          127.4          32.26
    0.7478              -14.44          10.28          42.94          64.72         0.5596         -17.33          149.5          50.18          -34.5          127.5          33.16
    0.7669               -14.7          10.27          43.34          64.76         0.4564         -17.23          146.0           50.6         -32.68          127.6          34.27
    0.7861              -15.02          10.27          43.84          64.81         0.3278          -17.1          141.7          51.13          -30.4          127.8          35.65
    0.8053              -15.43          10.26          44.48          64.86         0.1657         -16.93          136.3           51.8         -27.54          128.0           37.4
    0.8245              -15.95          10.26          45.28          64.94       -0.04031         -16.72          129.4          52.64          -23.9          128.2          39.61
    0.8436              -16.62          10.25          46.31          65.03         -0.304         -16.45          120.6          53.73         -19.25          128.6          42.44
    0.8628              -17.48          10.24          47.63          65.15        -0.6424          -16.1          109.3          55.12         -13.27          129.0          46.08
     0.882              -18.57          10.23          49.32           65.3         -1.075         -15.66          94.88           56.9         -5.641          129.5          50.72
    0.9012              -19.95          10.21          51.44          65.49         -1.618          -15.1          76.73          59.14          3.956          130.2          56.57
    0.9203              -21.62          10.19          54.03          65.73         -2.281         -14.42          54.62          61.87          15.65          131.0          63.68
    0.9395              -23.57          10.17          57.03           66.0         -3.048         -13.63          28.98          65.02          29.21          132.0          71.93
    0.9587              -25.67          10.14          60.28          66.29          -3.88         -12.78          1.218          68.45          43.88          133.0          80.87
    0.9779              -27.78          10.11          63.52          66.58         -4.711         -11.93         -26.54          71.87          58.56          134.1           89.8
     0.997              -29.72          10.09          66.52          66.85         -5.479         -11.14         -52.18          75.03          72.12          135.0          98.05
     1.016               -31.4          10.07          69.11          67.09         -6.141         -10.46          -74.3          77.75          83.81          135.8          105.2
